<?xml version="1.0" standalone="no"?>
<!DOCTYPE svg PUBLIC "-//W3C//DTD SVG 20010904//EN"
 "http://www.w3.org/TR/2001/REC-SVG-20010904/DTD/svg10.dtd">
<svg version="1.0" xmlns="http://www.w3.org/2000/svg"
 width="865.000000pt" height="288.000000pt" viewBox="0 0 865.000000 288.000000"
 preserveAspectRatio="xMidYMid meet">

<g transform="translate(0.000000,288.000000) scale(0.100000,-0.100000)"
fill="#000000" stroke="none">
<path d="M3947 2423 c-4 -3 -7 -346 -7 -762 l0 -756 243 -243 c133 -133 245
-242 249 -242 4 0 7 195 7 433 l-1 432 -100 101 -99 101 -2 264 -2 264 113 3
112 3 0 -91 0 -90 115 0 115 0 0 90 0 91 103 -3 102 -3 3 -92 3 -93 104 0 105
0 0 95 0 95 105 0 105 0 0 -258 0 -257 -85 -85 -85 -85 0 -460 0 -460 245 245
245 245 -2 760 -3 760 -841 3 c-462 1 -844 -1 -847 -5z"/>
</g>
</svg>
